# xmcd
#
# Track frame offsets: 
#        150
#        14275
#        25425
#        37955
#        50317
#        61875
#        71225
#        81217
#        93760
#        103030
#        111950
#        123332
#        133952
#        147482
#        157237
#        168892
#        180080
#        191662
#        203995
#        216372
#        228780
#        241865
#        255870
#        269302
#        280040
#
# Disc length: 3862 seconds
#
# Revision: 0
# Processed by: cddbd v1.4PL0 Copyright (c) Steve Scherf et al.
# Submitted via: ExactAudioCopy v0.90b3
#
DISCID=5e0f1419
DTITLE=George Jones - Lonely Street
DYEAR=1900
DGENRE=Country
TTITLE0=Cold Cold Heart
TTITLE1=Swingin' Doors
TTITLE2=A Girl I Used To Know
TTITLE3=Let's Get Together
TTITLE4=The Bridge Washed Out
TTITLE5=The Race Is On
TTITLE6=Heartaches And Hangovers
TTITLE7=Don't Be Angry
TTITLE8=Living On Easy Street
TTITLE9=The Love Bug
TTITLE10=Talk Back Trembling Lips
TTITLE11=Ragged But Right
TTITLE12=Come Sundown
TTITLE13=Honky Tonk Downstairs
TTITLE14=We Must Have Been Out Of Our Minds
TTITLE15=Ruby Don't Take Your Love To Town
TTITLE16=Fightin' Side Of Me
TTITLE17=Okie From Muskogee
TTITLE18=Blue Side Of Lonesome
TTITLE19=Take Me
TTITLE20=Hello Darlin'
TTITLE21=All I Have To Offer You (Is Me)
TTITLE22=Almost Persuaded
TTITLE23=Once A Day
TTITLE24=Lonely Street
EXTD=
EXTT0=
EXTT1=
EXTT2=
EXTT3=
EXTT4=
EXTT5=
EXTT6=
EXTT7=
EXTT8=
EXTT9=
EXTT10=
EXTT11=
EXTT12=
EXTT13=
EXTT14=
EXTT15=
EXTT16=
EXTT17=
EXTT18=
EXTT19=
EXTT20=
EXTT21=
EXTT22=
EXTT23=
EXTT24=
PLAYORDER=
